<svg width="120" height="29" viewBox="0 0 120 29" fill="none" xmlns="http://www.w3.org/2000/svg">
<path d="M23.3008 17.5547H7.26562V12.4375H23.3008V17.5547ZM25.5859 29H7.26562C6.5625 29 5.79427 28.8763 4.96094 28.6289C4.1276 28.3815 3.35286 27.9779 2.63672 27.418C1.93359 26.8451 1.34115 26.1094 0.859375 25.2109C0.390625 24.2995 0.15625 23.1862 0.15625 21.8711V3.55078C0.15625 3.19922 0.221354 2.86719 0.351562 2.55469C0.481771 2.24219 0.657552 1.96875 0.878906 1.73438C1.11328 1.5 1.38672 1.31771 1.69922 1.1875C2.01172 1.05729 2.35026 0.992188 2.71484 0.992188H25.5859V6.07031H5.23438V21.8711C5.23438 22.5352 5.41016 23.043 5.76172 23.3945C6.11328 23.7461 6.6276 23.9219 7.30469 23.9219H25.5859V29Z" fill="white"/>
<path d="M58.418 12.7109C58.418 13.8698 58.2747 14.9049 57.9883 15.8164C57.7018 16.7279 57.3112 17.5352 56.8164 18.2383C56.3346 18.9284 55.7747 19.5208 55.1367 20.0156C54.4987 20.5104 53.8281 20.9141 53.125 21.2266C52.4349 21.5391 51.7318 21.7669 51.0156 21.9102C50.3125 22.0534 49.6484 22.125 49.0234 22.125H37.5391V17.0469H49.0234C49.6745 16.9948 50.2604 16.8646 50.7812 16.6562C51.3151 16.4349 51.7708 16.1419 52.1484 15.7773C52.526 15.4128 52.819 14.9766 53.0273 14.4688C53.2357 13.9479 53.3398 13.362 53.3398 12.7109V10.4062C53.2747 9.76823 53.138 9.18229 52.9297 8.64844C52.7214 8.11458 52.4349 7.65885 52.0703 7.28125C51.7188 6.90365 51.2891 6.61068 50.7812 6.40234C50.2734 6.18099 49.6875 6.07031 49.0234 6.07031H37.5781C36.901 6.07031 36.3867 6.24609 36.0352 6.59766C35.6836 6.94922 35.5078 7.45703 35.5078 8.12109V29H30.4297V8.12109C30.4297 6.81901 30.6641 5.71224 31.1328 4.80078C31.6146 3.88932 32.207 3.15365 32.9102 2.59375C33.6263 2.03385 34.401 1.63021 35.2344 1.38281C36.0677 1.1224 36.8359 0.992188 37.5391 0.992188H49.0234C50.1693 0.992188 51.1979 1.14193 52.1094 1.44141C53.0208 1.72786 53.8216 2.11849 54.5117 2.61328C55.2148 3.09505 55.8073 3.65495 56.2891 4.29297C56.7839 4.93099 57.1875 5.60156 57.5 6.30469C57.8255 6.99479 58.0599 7.69792 58.2031 8.41406C58.3464 9.11719 58.418 9.78125 58.418 10.4062V12.7109ZM88.4961 29H65.332C64.9674 29 64.6289 28.9349 64.3164 28.8047C64.0039 28.6745 63.7305 28.4987 63.4961 28.2773C63.2747 28.043 63.099 27.7695 62.9688 27.457C62.8385 27.1445 62.7734 26.806 62.7734 26.4414V0.992188H67.8516V23.9219H88.4961V29ZM119.707 29H114.629V22.125H96.7773V29H91.6992V14.9961C91.6992 12.9518 92.0508 11.0703 92.7539 9.35156C93.457 7.63281 94.4336 6.15495 95.6836 4.91797C96.9336 3.68099 98.4115 2.71745 100.117 2.02734C101.823 1.33724 103.685 0.992188 105.703 0.992188H117.148C117.5 0.992188 117.832 1.05729 118.145 1.1875C118.457 1.31771 118.73 1.5 118.965 1.73438C119.199 1.96875 119.382 2.24219 119.512 2.55469C119.642 2.86719 119.707 3.19922 119.707 3.55078V29ZM96.7773 17.0469H114.629V6.07031H105.703C105.547 6.07031 105.215 6.09635 104.707 6.14844C104.212 6.1875 103.633 6.29818 102.969 6.48047C102.318 6.66276 101.628 6.94271 100.898 7.32031C100.169 7.69792 99.4987 8.21875 98.8867 8.88281C98.2747 9.54688 97.7669 10.3802 97.3633 11.3828C96.9727 12.3724 96.7773 13.5768 96.7773 14.9961V17.0469Z" fill="#F7C873"/>
</svg>
